<svg preserveAspectRatio="none" width="100%" height="100%" overflow="visible" style="display: block;" viewBox="0 0 34 34" fill="none" xmlns="http://www.w3.org/2000/svg">
<path id="Subtract" d="M22.6352 32.6996C22.5223 32.9569 22.3069 33.1564 22.0385 33.2396C20.4464 33.7332 18.7544 34 17 34C14.4335 34 12.0001 33.4308 9.81849 32.4124C9.19831 32.1229 9.11184 31.3006 9.62385 30.8464L28.8413 13.799C29.6437 13.0872 30.8515 13.9665 30.4207 14.9487L22.6352 32.6996ZM32.3213 15.596C32.7048 14.7217 33.8918 14.8518 33.9583 15.8042C33.9859 16.1992 34 16.598 34 17C34 22.3764 31.5037 27.1688 27.6073 30.2836C26.8615 30.8798 25.9616 30.0949 26.3451 29.2204L32.3213 15.596ZM7.45657 30.0956C7.10194 30.4102 6.57306 30.4349 6.20698 30.1338C3.54307 27.9421 1.55806 24.956 0.613608 21.5375C0.4801 21.0543 0.754162 20.5591 1.22514 20.3873L25.4604 11.5449C26.4972 11.1666 27.2924 12.5 26.4667 13.2325L7.45657 30.0956ZM1.29443 18.2325C0.680402 18.4565 0.0192174 18.0403 0.00439137 17.3869C0.00147342 17.2583 0 17.1293 0 17C0 14.2742 0.641243 11.6981 1.78149 9.41474C1.94094 9.09544 2.26754 8.89729 2.62431 8.8875L22.7348 8.33567C23.8684 8.30456 24.1703 9.88602 23.105 10.2747L1.29443 18.2325ZM17 0C21.5165 0 25.6212 1.76164 28.6654 4.63492C29.2724 5.20785 28.8504 6.1683 28.0161 6.19117L5.40726 6.81077C4.5728 6.83364 4.09895 5.8976 4.67394 5.29243C7.77128 2.03249 12.1483 0 17 0Z" fill="var(--fill-0, black)" style="fill:black;fill-opacity:1;"/>
</svg>
